<svg xmlns="http://www.w3.org/2000/svg" xmlns:xlink="http://www.w3.org/1999/xlink" width="113.42" height="113.34" viewBox="0 0 113.42 113.34">
  <defs>
    <linearGradient id="linear-gradient" x1="0.039" y1="0.899" x2="0.943" y2="0.116" gradientUnits="objectBoundingBox">
      <stop offset="0" stop-color="#f7de00"/>
      <stop offset="0.282" stop-color="#fa0608"/>
      <stop offset="0.645" stop-color="#944eca"/>
      <stop offset="1" stop-color="#7a37aa"/>
    </linearGradient>
    <linearGradient id="linear-gradient-2" x1="-0.164" y1="1.076" x2="1.137" y2="-0.052" xlink:href="#linear-gradient"/>
    <linearGradient id="linear-gradient-3" x1="-0.967" y1="1.771" x2="1.974" y2="-0.777" xlink:href="#linear-gradient"/>
  </defs>
  <g id="Group_43794" data-name="Group 43794" transform="translate(-166.436 166.625)">
    <path id="Path_82888" data-name="Path 82888" d="M166.452-109.611c0-9.285-.04-18.57.017-27.855a28.578,28.578,0,0,1,3.44-13.314,29.3,29.3,0,0,1,5.2-7.041,29.337,29.337,0,0,1,8.919-6.18,26.582,26.582,0,0,1,9.365-2.441c3.08-.167,6.171-.167,9.257-.17q23.742-.024,47.483-.007a29.271,29.271,0,0,1,12.832,2.938,29.935,29.935,0,0,1,7.261,4.968,29.57,29.57,0,0,1,6.617,8.813,28.533,28.533,0,0,1,2.79,9.557,28.9,28.9,0,0,1,.206,3.1q.018,27.288-.009,54.577a28.792,28.792,0,0,1-4.507,15.337,29.407,29.407,0,0,1-4.37,5.432,29.19,29.19,0,0,1-11.046,6.909,30.7,30.7,0,0,1-10.2,1.674q-21.4-.039-42.8-.013c-3.655,0-7.31.041-10.966.037a28.855,28.855,0,0,1-9.391-1.607,29.866,29.866,0,0,1-7.692-3.956,31.122,31.122,0,0,1-5.283-4.894,28.1,28.1,0,0,1-3.729-5.474,29.709,29.709,0,0,1-2.948-8.615,36.4,36.4,0,0,1-.457-6.572q.016-12.6,0-25.208Zm11.568.242h-.014c0,6.715-.015,13.431.012,20.146a30.022,30.022,0,0,0,.277,4.186,24.534,24.534,0,0,0,3.274,9.125,25.712,25.712,0,0,0,7.379,7.951,25.736,25.736,0,0,0,6.078,3.171,25.457,25.457,0,0,0,8.686,1.507q5.387,0,10.774.011c2.773,0,5.545.019,8.318.02,7.141,0,14.282.035,21.423-.025a27.2,27.2,0,0,0,5.151-.545,25.011,25.011,0,0,0,13.342-7.385,25.407,25.407,0,0,0,5.1-7.666,24.1,24.1,0,0,0,2.043-9.493q.027-19.98,0-39.96c0-1.305-.012-2.617-.14-3.914a24.825,24.825,0,0,0-2.946-9.447,25.287,25.287,0,0,0-3.867-5.341A25.539,25.539,0,0,0,254.435-153a23.715,23.715,0,0,0-9.481-2.087q-21.116-.006-42.231,0c-.456,0-.912.022-1.367.06a24.783,24.783,0,0,0-10.985,3.6,25.4,25.4,0,0,0-10.121,11.421,23.955,23.955,0,0,0-2.23,9.971Q178.024-119.7,178.02-109.369Z" fill="url(#linear-gradient)"/>
    <path id="Path_82889" data-name="Path 82889" d="M248.6-123.879c6.874,0,13.747-.036,20.621.012a18.247,18.247,0,0,1,12.135,4.65,18.808,18.808,0,0,1,6.388,11.633,13.676,13.676,0,0,1,.176,2.114q.016,20.716.008,41.431a17.9,17.9,0,0,1-2.491,9.19A18.834,18.834,0,0,1,270.967-45.3a16.34,16.34,0,0,1-2.119.132q-20.361.013-40.721,0a18.785,18.785,0,0,1-8.283-1.957,18.837,18.837,0,0,1-5.482-4.025,18.891,18.891,0,0,1-4.478-7.877,23.51,23.51,0,0,1-.742-6.671c.025-5.06.007-10.12.007-15.18q0-11.8,0-23.6a18.991,18.991,0,0,1,5.5-13.71,18.857,18.857,0,0,1,9.22-5.2,29.248,29.248,0,0,1,7.047-.512H248.6Zm.19,18.095c-12.839-.249-23.585,10.364-23.986,23.074a24.032,24.032,0,0,0,23.984,24.853,24.029,24.029,0,0,0,24.022-24.407C272.64-95.267,261.7-106.052,248.792-105.784Zm20.79-3.959a4.193,4.193,0,0,0,4.2,4.35,4.3,4.3,0,0,0,4.35-4.3,4.367,4.367,0,0,0-4.271-4.318A4.266,4.266,0,0,0,269.582-109.743Z" transform="translate(-24.642 -24.651)" fill="url(#linear-gradient-2)"/>
    <path id="Path_82890" data-name="Path 82890" d="M261.7-48.251a17.348,17.348,0,0,1,17.612-17.419,17.357,17.357,0,0,1,17.233,17.985,17.335,17.335,0,0,1-17.471,16.85A17.32,17.32,0,0,1,261.7-48.251Z" transform="translate(-54.967 -58.252)" fill="url(#linear-gradient-3)"/>
  </g>
</svg>
